<svg width="177" height="40" viewBox="0 0 177 40" fill="none" xmlns="http://www.w3.org/2000/svg">
<path d="M123.231 36.2646C120.445 36.2646 118.769 34.7099 118.648 32.2869H120.546C120.627 33.9426 121.697 34.6897 123.231 34.6897C124.786 34.6897 125.775 33.9224 125.775 32.6907C125.775 31.7215 125.149 31.0956 123.635 31.0956H122.444C120.182 31.0956 118.85 29.8639 118.85 28.0264C118.85 26.0476 120.404 24.5535 123.09 24.5535C125.856 24.5535 127.35 26.1284 127.472 28.4505H125.573C125.493 26.9765 124.665 26.1284 123.09 26.1284C121.656 26.1284 120.748 26.8351 120.748 27.9457C120.748 28.9351 121.454 29.3995 122.585 29.3995H123.898C126.401 29.3995 127.673 30.8331 127.673 32.6503C127.673 34.7502 125.977 36.2646 123.231 36.2646Z" fill="white"/>
<path d="M100.979 35.9617V24.8563H102.756V26.8149H102.796C103.321 25.7044 104.391 24.5535 106.188 24.5535C107.844 24.5535 109.035 25.5227 109.5 27.1178H109.54C110.106 25.6236 111.277 24.5535 113.074 24.5535C115.335 24.5535 116.688 26.2698 116.688 28.9351V35.9617H114.871V29.1168C114.871 27.0572 113.922 26.1688 112.589 26.1688C111.055 26.1688 109.742 27.3601 109.742 29.6619V35.9617H107.925V29.1168C107.925 27.0572 106.976 26.1688 105.643 26.1688C104.109 26.1688 102.796 27.3803 102.796 29.6821V35.9617H100.979Z" fill="white"/>
<path d="M93.7111 36.2646C90.4401 36.2646 88.2594 33.9426 88.2594 30.409C88.2594 26.8351 90.4805 24.5535 93.6708 24.5535C96.6591 24.5535 98.9408 26.5322 98.9408 29.8235V31.0148H90.1776C90.3189 33.0945 91.591 34.6897 93.7111 34.6897C95.2457 34.6897 96.437 33.8618 96.8812 32.5494H98.8398C98.3754 34.7301 96.3562 36.2646 93.7111 36.2646ZM90.218 29.46H97.0428C97.0428 27.4813 95.7909 26.1284 93.7313 26.1284C91.591 26.1284 90.4603 27.5822 90.218 29.46Z" fill="white"/>
<path d="M85.1611 35.9615C83.2227 35.9615 82.2131 34.9923 82.2131 33.0337V26.4715H79.992V24.8561H82.2131V21.8274H84.0303V24.8561H87.5437V26.4715H84.0303V33.0337C84.0303 33.9828 84.5149 34.3462 85.363 34.3462H87.6446V35.9615H85.1611Z" fill="white"/>
<path d="M74.6055 36.2646C71.8191 36.2646 70.1432 34.7099 70.022 32.2869H71.92C72.0008 33.9426 73.071 34.6897 74.6055 34.6897C76.1603 34.6897 77.1497 33.9224 77.1497 32.6907C77.1497 31.7215 76.5237 31.0956 75.0094 31.0956H73.8181C71.5566 31.0956 70.2239 29.8639 70.2239 28.0264C70.2239 26.0476 71.7787 24.5535 74.4642 24.5535C77.2304 24.5535 78.7246 26.1284 78.8458 28.4505H76.9478C76.867 26.9765 76.0391 26.1284 74.4642 26.1284C73.0306 26.1284 72.122 26.8351 72.122 27.9457C72.122 28.9351 72.8287 29.3995 73.9594 29.3995H75.2719C77.7756 29.3995 79.0477 30.8331 79.0477 32.6503C79.0477 34.7502 77.3516 36.2646 74.6055 36.2646Z" fill="white"/>
<path d="M58.9087 39.9999V38.3846H61.8567L63.1489 35.3558L58.9087 24.8562H60.8875L64.0576 33.2357H64.0979L67.268 24.8562H69.2468L63.4922 39.1519C63.2701 39.7172 62.8461 39.9999 62.2403 39.9999H58.9087Z" fill="white"/>
<path d="M52.3925 36.2638C48.7378 36.2638 46.7994 34.2447 46.6581 31.0746H48.5561C48.6772 33.3158 50.0301 34.5879 52.4329 34.5879C54.6742 34.5879 56.0068 33.4572 56.0068 31.7207C56.0068 30.6505 55.502 29.5804 53.1598 29.5804H51.3223C48.2936 29.5804 46.86 27.9852 46.86 25.8449C46.86 23.2806 48.9397 21.5239 52.2714 21.5239C55.8453 21.5239 57.5616 23.5633 57.7029 26.4305H55.8049C55.6837 24.3306 54.5328 23.1998 52.231 23.1998C50.0907 23.1998 48.758 24.1892 48.758 25.8046C48.758 26.8949 49.3638 27.7631 51.4031 27.7631H53.2406C56.8952 27.7631 57.9048 29.7419 57.9048 31.6803C57.9048 34.487 55.7847 36.2638 52.3925 36.2638Z" fill="white"/>
<path d="M165.865 19.8079V18.1926H168.813L170.106 15.1638L165.865 4.66418H167.844L171.014 13.0437H171.055L174.225 4.66418H176.204L170.449 18.9599C170.227 19.5252 169.803 19.8079 169.197 19.8079H165.865Z" fill="white"/>
<path d="M162.777 15.7694C160.839 15.7694 159.829 14.8002 159.829 12.8416V6.27933H157.608V4.664H159.829V1.63525H161.646V4.664H165.16V6.27933H161.646V12.8416C161.646 13.7906 162.131 14.1541 162.979 14.1541H165.261V15.7694H162.777Z" fill="white"/>
<path d="M151.786 16.0717C148.515 16.0717 146.335 13.7497 146.335 10.2162C146.335 6.64225 148.556 4.3606 151.746 4.3606C154.734 4.3606 157.016 6.33938 157.016 9.63061V10.8219H148.253C148.394 12.9017 149.666 14.4968 151.786 14.4968C153.321 14.4968 154.512 13.6689 154.956 12.3565H156.915C156.451 14.5372 154.432 16.0717 151.786 16.0717ZM148.293 9.26716H155.118C155.118 7.28838 153.866 5.93554 151.807 5.93554C149.666 5.93554 148.536 7.38934 148.293 9.26716Z" fill="white"/>
<path d="M141.682 3.53354C141.682 1.29226 142.874 0 145.236 0H146.73V1.61533H145.277C144.227 1.61533 143.5 2.07974 143.5 3.57392V4.66427H145.923V6.2796H143.5V15.7697H141.682V6.2796H140.269V4.66427H141.682V3.53354Z" fill="white"/>
<path d="M136.858 13.467C136.151 15.2439 134.697 16.0717 132.941 16.0717C130.821 16.0717 129.145 14.8602 129.145 12.5584C129.145 10.0546 131.164 9.08544 133.365 9.08544H135.121C136.232 9.08544 136.797 8.62103 136.797 7.75279C136.797 6.54129 135.687 5.93554 134.293 5.93554C132.658 5.93554 131.507 6.7634 131.386 8.25758H129.569C129.73 5.89516 131.285 4.3606 134.293 4.3606C137.363 4.3606 138.614 5.95573 138.614 8.13643V13.4468C138.614 13.9718 138.796 14.1535 139.321 14.1535H139.826V15.7689H138.635C137.565 15.7689 136.898 15.1227 136.898 14.1132V13.467H136.858ZM131.043 12.5584C131.043 13.5882 131.689 14.4968 133.284 14.4968C135.121 14.4968 136.797 13.2853 136.797 10.6806V9.4287H136.757C136.373 10.2364 135.666 10.6402 134.314 10.6402H133.405C131.669 10.6402 131.043 11.5488 131.043 12.5584Z" fill="white"/>
<path d="M122.023 16.0733C118.368 16.0733 116.429 14.0541 116.288 10.884H118.186C118.307 13.1253 119.66 14.3974 122.063 14.3974C124.304 14.3974 125.637 13.2666 125.637 11.5301C125.637 10.46 125.132 9.38983 122.79 9.38983H120.952C117.924 9.38983 116.49 7.7947 116.49 5.65438C116.49 3.09005 118.57 1.33337 121.901 1.33337C125.475 1.33337 127.192 3.37273 127.333 6.23994H125.435C125.314 4.14001 124.163 3.00928 121.861 3.00928C119.721 3.00928 118.388 3.99867 118.388 5.614C118.388 6.70435 118.994 7.57259 121.033 7.57259H122.871C126.525 7.57259 127.535 9.55137 127.535 11.4898C127.535 14.2964 125.415 16.0733 122.023 16.0733Z" fill="white"/>
<path d="M106.439 16.0717C103.652 16.0717 101.976 14.517 101.855 12.094H103.753C103.834 13.7497 104.904 14.4968 106.439 14.4968C107.994 14.4968 108.983 13.7295 108.983 12.4978C108.983 11.5286 108.357 10.9027 106.843 10.9027H105.651C103.39 10.9027 102.057 9.67099 102.057 7.83356C102.057 5.85478 103.612 4.3606 106.298 4.3606C109.064 4.3606 110.558 5.93554 110.679 8.25758H108.781C108.7 6.78359 107.872 5.93554 106.298 5.93554C104.864 5.93554 103.955 6.64225 103.955 7.75279C103.955 8.74218 104.662 9.20659 105.793 9.20659H107.105C109.609 9.20659 110.881 10.6402 110.881 12.4574C110.881 14.5574 109.185 16.0717 106.439 16.0717Z" fill="white"/>
<path d="M78.4738 15.7696V14.3562L84.9553 6.27951V6.25932H78.8776V4.66418H87.4186V6.0776L80.9573 14.1543V14.1744H87.8629V15.7696H78.4738Z" fill="white"/>
<path d="M74.642 13.4678C73.9353 15.2446 72.4815 16.0725 70.7248 16.0725C68.6047 16.0725 66.9288 14.861 66.9288 12.5591C66.9288 10.0554 68.9479 9.08617 71.1488 9.08617H72.9055C74.016 9.08617 74.5814 8.62176 74.5814 7.75352C74.5814 6.54202 73.4709 5.93628 72.0776 5.93628C70.4421 5.93628 69.2912 6.76413 69.17 8.25831H67.3528C67.5143 5.89589 69.0691 4.36133 72.0776 4.36133C75.1468 4.36133 76.3986 5.95647 76.3986 8.13716V13.4476C76.3986 13.9725 76.5804 14.1543 77.1054 14.1543H77.6101V15.7696H76.4188C75.3487 15.7696 74.6824 15.1235 74.6824 14.1139V13.4678H74.642ZM68.8268 12.5591C68.8268 13.5889 69.4729 14.4975 71.0681 14.4975C72.9055 14.4975 74.5814 13.286 74.5814 10.6813V9.42943H74.541C74.1574 10.2371 73.4507 10.6409 72.0978 10.6409H71.1892C69.4527 10.6409 68.8268 11.5495 68.8268 12.5591Z" fill="white"/>
<path d="M60.6154 15.7696V4.66418H62.3922V6.60258H62.4326C62.9576 5.43147 63.5633 4.66418 65.3402 4.66418H66.4104V6.27951H65.0979C63.2403 6.27951 62.4326 7.39005 62.4326 9.51018V15.7696H60.6154Z" fill="white"/>
<path d="M47.4051 15.7694V1.63525H53.0991C55.6635 1.63525 57.3798 3.04867 57.3798 5.1486C57.3798 6.76393 56.3298 7.87447 54.5125 8.05619V8.09658C56.9961 8.17734 58.4095 9.61095 58.4095 11.6099C58.4095 13.9723 56.5317 15.7694 53.503 15.7694H47.4051ZM49.2829 14.0935H53.2809C55.4212 14.0935 56.4509 13.1243 56.4509 11.6099C56.4509 10.0955 55.3808 9.14654 53.2809 9.14654H49.2829V14.0935ZM49.2829 7.47064H52.877C54.5529 7.47064 55.4414 6.64278 55.4414 5.3909C55.4414 4.15921 54.5933 3.31116 52.877 3.31116H49.2829V7.47064Z" fill="white"/>
<rect x="13.6779" y="14.6483" width="7.8523" height="7.8523" rx="3.92615" fill="#28C8B9"/>
<path d="M20.123 1.18689C20.5137 1.18691 20.8299 1.5033 20.8301 1.89392V7.13904H20.8311C20.8313 7.54324 21.1539 7.87191 21.5557 7.8822H27.1904C27.5811 7.88231 27.8975 8.19952 27.8975 8.59021V14.2426C27.8973 14.6331 27.581 14.9495 27.1904 14.9496H21.5381C21.1475 14.9496 20.8303 14.6331 20.8301 14.2426V8.60779C20.8199 8.20583 20.4913 7.8833 20.0869 7.88318V7.8822H7.06738V29.0853H20.0859C20.4709 29.0851 20.788 28.7923 20.8262 28.4174L20.8301 28.3412V22.725C20.8301 22.3342 21.1473 22.0179 21.5381 22.0179H27.1904C27.5811 22.018 27.8975 22.3343 27.8975 22.725V28.3773C27.8975 28.768 27.5811 29.0852 27.1904 29.0853H21.5547C21.1527 29.0955 20.8301 29.424 20.8301 29.8285V35.0736C20.83 35.4643 20.5137 35.7806 20.123 35.7806H0.708008L0.564453 35.767C0.380451 35.7292 0.222742 35.6195 0.121094 35.4691C0.0446764 35.3563 0.00018691 35.2201 0 35.0736V1.89392C0.000139478 1.50328 0.317337 1.18689 0.708008 1.18689H20.123Z" fill="white"/>
<path fill-rule="evenodd" clip-rule="evenodd" d="M94.4742 14.3891C96.7789 14.3891 98.6472 12.5208 98.6472 10.2162C98.6472 7.91152 96.7789 6.04323 94.4742 6.04323C92.1696 6.04323 90.3013 7.91152 90.3013 10.2162C90.3013 12.5208 92.1696 14.3891 94.4742 14.3891ZM94.4742 16.0717C97.7082 16.0717 100.33 13.4501 100.33 10.2162C100.33 6.98222 97.7082 4.3606 94.4742 4.3606C91.2403 4.3606 88.6187 6.98222 88.6187 10.2162C88.6187 13.4501 91.2403 16.0717 94.4742 16.0717Z" fill="white"/>
<rect x="92.7915" y="8.47803" width="3.36527" height="3.36527" rx="1.68264" fill="#28C8B9"/>
</svg>
