<svg width="165" height="28" viewBox="0 0 165 28" fill="none" xmlns="http://www.w3.org/2000/svg">
<ellipse cx="89.4187" cy="3.82168" rx="3.63176" ry="3.47787" fill="white"/>
<path d="M16.6865 9.11892H17.0649L16.6865 2.45946C14.6054 1.32432 11.6541 0.756756 9.34595 0.756756C4.16216 0.756756 0 3.4054 0 8.4C0 16.6486 12.9784 16.2324 12.9784 23.0811C12.9784 26.3351 10.7081 27.6216 8.55135 27.6216C4.35135 27.6216 1.66486 23.9892 0.416216 19.0703H0.0378378L0.416216 26.1081C2.4973 27.2432 5.78919 28 8.51351 28C13.5838 28 18.2378 25.427 18.2378 19.6C18.2378 11.0108 5.25946 11.1243 5.25946 4.65405C5.25946 2.15676 7.18919 1.13513 9.38378 1.13513C12.9405 1.13513 15.4378 5.03243 16.6865 9.11892Z" fill="white"/>
<path d="M33.3481 11.3514V23.6486C32.5914 24.2919 31.4941 25.1622 29.7535 25.1622C28.3914 25.1622 27.7103 24.2541 27.7103 22.7784V8.32432H27.0292L19.159 9.23243V9.61081C21.1644 9.8 21.3914 9.95135 21.3914 11.3514V22.3243C21.3914 26.4865 23.7752 28 26.5752 28C29.3373 28 31.6076 26.2973 33.3481 24.027H33.5373L33.6887 28H34.0671L41.8995 27.0919V26.7135C39.8941 26.5243 39.6671 26.373 39.6671 24.973V8.32432H38.986L30.359 9.23243V9.61081C33.1211 9.8 33.3481 9.95135 33.3481 11.3514Z" fill="white"/>
<path d="M50.4254 11.1243H50.2362L50.4254 0H50.047L41.8741 0.908108V1.28649C43.8795 1.47567 44.1065 1.62703 44.1065 3.02703V27.8108H44.4849L47.5497 25.7297C49.4795 27.5081 51.8254 28 53.7551 28C59.0524 28 63.2146 24.2541 63.2146 18.1622C63.2146 12.4865 60.3768 8.32432 55.6092 8.32432C53.3389 8.32432 51.6362 9.42162 50.4254 11.1243ZM52.6957 10.5946C54.8524 10.5946 56.5552 12.9405 56.5552 18.4649C56.5552 23.2703 55.647 27.4703 53.2254 27.4703C52.2038 27.4703 50.4254 27.0541 50.4254 23.0054V11.5027C51.1443 10.8973 51.9011 10.5946 52.6957 10.5946Z" fill="white"/>
<path d="M64.7612 11.5405L71.7612 27.8108H75.0531L80.9937 11.7676C81.5612 10.2919 81.9774 9.42162 83.7937 9.08108V8.7027H76.3774V9.08108C80.4639 9.30811 80.9937 10.4054 80.4639 11.8811L76.3774 22.8919H76.3018L71.9504 11.8811C71.4207 10.5568 71.572 9.30811 73.7666 9.08108V8.7027H62.5288V9.08108C63.7018 9.23243 64.2315 10.2919 64.7612 11.5405Z" fill="white"/>
<path d="M92.7494 25.8054V8.32432H92.371L84.1981 9.23243V9.61081C86.2035 9.8 86.4305 9.95135 86.4305 11.3514V25.8054C86.4305 26.9027 86.2035 27.0541 84.1981 27.2432V27.6216H94.9818V27.2432C92.9764 27.0541 92.7494 26.9027 92.7494 25.8054Z" fill="white"/>
<path d="M109.045 14.3784H109.423L109.045 9.4973C107.531 8.77838 105.11 8.32432 103.331 8.32432C98.261 8.32432 96.0286 10.8216 96.0286 13.8486C96.0286 20.7351 105.98 20.5081 105.98 24.973C105.98 26.6378 104.769 27.6216 102.839 27.6216C99.9637 27.6216 97.4664 25.6541 96.2178 21.5676H95.8394L96.2556 26.6757C97.7691 27.4324 100.683 28 102.65 28C107.493 28 110.483 25.6541 110.483 22.0595C110.483 15.5892 100.796 15.8162 100.796 11.0108C100.796 9.53514 101.666 8.7027 103.256 8.7027C105.715 8.7027 108.023 11.6919 109.045 14.3784Z" fill="white"/>
<path d="M125.245 11.3514V23.6486C124.489 24.2919 123.391 25.1622 121.651 25.1622C120.289 25.1622 119.607 24.2541 119.607 22.7784V8.32432H118.926L111.056 9.23243V9.61081C113.062 9.8 113.289 9.95135 113.289 11.3514V22.3243C113.289 26.4865 115.672 28 118.472 28C121.234 28 123.505 26.2973 125.245 24.027H125.434L125.586 28H125.964L133.797 27.0919V26.7135C131.791 26.5243 131.564 26.373 131.564 24.973V8.32432H130.883L122.256 9.23243V9.61081C125.018 9.8 125.245 9.95135 125.245 11.3514Z" fill="white"/>
<path d="M151.025 25.2378V14.1135C151.101 10.8973 148.452 8.32432 143.76 8.32432C138.312 8.32432 135.247 12.373 135.247 14.5297C135.247 15.9676 136.42 16.4973 137.669 16.4973C139.069 16.4973 140.052 15.7784 140.052 14.9081C140.052 13.8108 137.82 13.4324 137.82 11.9189C137.82 10.4432 139.409 9.53513 140.998 9.53513C143.685 9.53513 144.706 11.5784 144.706 13.6973V17.5189C136.496 18.0108 134.679 21.1892 134.679 23.5351C134.679 26.0324 136.306 28 139.182 28C141.452 28 143.344 26.8649 144.631 24.973H144.706V25.427C144.706 26.827 145.69 28 147.847 28C150.004 28 151.933 27.0162 153.485 25.7676L153.447 25.4649C152.955 25.7676 152.35 26.1081 151.896 26.1081C151.328 26.1081 151.025 25.7676 151.025 25.2378ZM144.706 17.8973V24.5946C144.214 24.8973 143.76 25.2 143.079 25.2C141.869 25.2 141.112 24.3297 141.112 22.0973C141.112 19.2595 142.398 18.2 144.706 17.8973Z" fill="white"/>
<path d="M162.476 25.8054V0H162.098L153.925 0.908108V1.28649C155.93 1.47567 156.157 1.62703 156.157 3.02703V25.8054C156.157 26.9027 155.93 27.0541 153.925 27.2432V27.6216H164.708V27.2432C162.703 27.0541 162.476 26.9027 162.476 25.8054Z" fill="white"/>
</svg>
