<svg preserveAspectRatio="none" width="100%" height="100%" overflow="visible" style="display: block;" viewBox="0 0 20 20" fill="none" xmlns="http://www.w3.org/2000/svg">
<g id="arrow_forward">
<mask id="mask0_274_21787" style="mask-type:alpha" maskUnits="userSpaceOnUse" x="0" y="0" width="20" height="20">
<rect id="Bounding box" width="20" height="20" fill="var(--fill-0, #D9D9D9)"/>
</mask>
<g mask="url(#mask0_274_21787)">
<path id="arrow_forward_2" d="M13.8781 10.3333H5.16625C5.07139 10.3333 4.99215 10.3019 4.92854 10.2392C4.86507 10.1764 4.83333 10.0981 4.83333 10.0044C4.83333 9.91063 4.86507 9.8309 4.92854 9.76521C4.99215 9.69951 5.07139 9.66667 5.16625 9.66667H13.8781L9.75833 5.54688C9.69403 5.48257 9.65653 5.40576 9.64583 5.31646C9.63514 5.22729 9.66882 5.14042 9.74687 5.05583C9.82479 4.97375 9.90569 4.93535 9.98958 4.94063C10.0735 4.94604 10.1531 4.98653 10.2283 5.06208L14.7496 9.58938C14.814 9.65382 14.8609 9.71924 14.8902 9.78563C14.9197 9.85188 14.9344 9.92445 14.9344 10.0033C14.9344 10.0822 14.9197 10.1548 14.8902 10.221C14.8609 10.2873 14.8168 10.3499 14.7579 10.4088L10.2323 14.9344C10.1544 15.0123 10.0769 15.0505 10 15.049C9.92306 15.0473 9.84562 15.0054 9.76771 14.9233C9.68965 14.8388 9.65063 14.756 9.65063 14.6752C9.65063 14.5944 9.68965 14.5173 9.76771 14.444L13.8781 10.3333Z" fill="var(--fill-0, white)"/>
</g>
</g>
</svg>
