<svg preserveAspectRatio="xMidYMid meet" width="100%" height="100%" overflow="visible" style="display: block;" viewBox="0 0 260 59.0225" fill="none" xmlns="http://www.w3.org/2000/svg">
<g id="Icon Container">
<g id="Icon Container_2">
<g id="Brazos Safety Systems">
<path id="Vector" d="M181.836 53.5105C177.725 53.5105 175.252 51.2164 175.073 47.6411H177.874C177.993 50.0842 179.572 51.1866 181.836 51.1866C184.13 51.1866 185.59 50.0544 185.59 48.237C185.59 46.8069 184.667 45.8833 182.432 45.8833H180.674C177.337 45.8833 175.371 44.0658 175.371 41.3545C175.371 38.4347 177.665 36.23 181.628 36.23C185.709 36.23 187.914 38.5539 188.093 41.9802H185.292C185.173 39.8053 183.952 38.5539 181.628 38.5539C179.512 38.5539 178.172 39.5967 178.172 41.2354C178.172 42.6953 179.214 43.3805 180.883 43.3805H182.819C186.514 43.3805 188.391 45.4959 188.391 48.1774C188.391 51.276 185.888 53.5105 181.836 53.5105Z" fill="var(--fill-0, white)"/>
<path id="Vector_2" d="M149 53.0636V36.6769H151.622V39.5669H151.682C152.456 37.9282 154.036 36.23 156.687 36.23C159.13 36.23 160.888 37.6601 161.573 40.0138H161.633C162.467 37.8091 164.195 36.23 166.847 36.23C170.184 36.23 172.18 38.7625 172.18 42.6953V53.0636H169.499V42.9634C169.499 39.9244 168.098 38.6135 166.132 38.6135C163.868 38.6135 161.931 40.3713 161.931 43.7679V53.0636H159.249V42.9634C159.249 39.9244 157.849 38.6135 155.883 38.6135C153.618 38.6135 151.682 40.4011 151.682 43.7977V53.0636H149Z" fill="var(--fill-0, white)"/>
<path id="Vector_3" d="M138.277 53.5105C133.451 53.5105 130.233 50.0842 130.233 44.8702C130.233 39.5967 133.51 36.23 138.218 36.23C142.627 36.23 145.994 39.1498 145.994 44.0062V45.7641H133.063C133.272 48.8329 135.149 51.1866 138.277 51.1866C140.542 51.1866 142.3 49.965 142.955 48.0284H145.845C145.16 51.2462 142.18 53.5105 138.277 53.5105ZM133.123 43.4699H143.193C143.193 40.5501 141.346 38.5539 138.307 38.5539C135.149 38.5539 133.481 40.6991 133.123 43.4699Z" fill="var(--fill-0, white)"/>
<path id="Vector_4" d="M125.661 53.0637C122.801 53.0637 121.311 51.6336 121.311 48.7435V39.0605H118.034V36.6769H121.311V32.2078H123.992V36.6769H129.177V39.0605H123.992V48.7435C123.992 50.1439 124.708 50.6802 125.959 50.6802H129.326V53.0637H125.661Z" fill="var(--fill-0, white)"/>
<path id="Vector_5" d="M110.085 53.5105C105.973 53.5105 103.5 51.2164 103.322 47.6411H106.122C106.241 50.0842 107.82 51.1866 110.085 51.1866C112.379 51.1866 113.839 50.0544 113.839 48.237C113.839 46.8069 112.915 45.8833 110.681 45.8833H108.923C105.586 45.8833 103.62 44.0658 103.62 41.3545C103.62 38.4347 105.914 36.23 109.876 36.23C113.958 36.23 116.163 38.5539 116.342 41.9802H113.541C113.422 39.8053 112.2 38.5539 109.876 38.5539C107.761 38.5539 106.42 39.5967 106.42 41.2354C106.42 42.6953 107.463 43.3805 109.131 43.3805H111.068C114.762 43.3805 116.64 45.4959 116.64 48.1774C116.64 51.276 114.137 53.5105 110.085 53.5105Z" fill="var(--fill-0, white)"/>
<path id="Vector_6" d="M86.9239 59.0225V56.6389H91.2738L93.1806 52.1698L86.9239 36.6769H89.8437L94.5214 49.0414H94.5809L99.2586 36.6769H102.178L93.6871 57.7711C93.3594 58.6053 92.7337 59.0225 91.8399 59.0225H86.9239Z" fill="var(--fill-0, white)"/>
<path id="Vector_7" d="M77.3082 53.5098C71.9155 53.5098 69.0553 50.5304 68.8467 45.8527H71.6474C71.8261 49.1599 73.8223 51.0369 77.3678 51.0369C80.675 51.0369 82.6414 49.3684 82.6414 46.8061C82.6414 45.227 81.8965 43.648 78.4404 43.648H75.7292C71.26 43.648 69.1447 41.2942 69.1447 38.136C69.1447 34.3522 72.2135 31.7601 77.1295 31.7601C82.403 31.7601 84.9355 34.7693 85.1441 39.0001H82.3434C82.1647 35.9015 80.4664 34.233 77.0699 34.233C73.9117 34.233 71.9453 35.6929 71.9453 38.0765C71.9453 39.6853 72.8391 40.9665 75.8483 40.9665H78.5596C83.9523 40.9665 85.442 43.8863 85.442 46.7465C85.442 50.8879 82.3136 53.5098 77.3082 53.5098Z" fill="var(--fill-0, white)"/>
<path id="Vector_8" d="M244.746 29.2275V26.8439H249.096L251.002 22.3748L244.746 6.8819H247.665L252.343 19.2464H252.403L257.08 6.8819H260L251.509 27.9761C251.181 28.8103 250.555 29.2275 249.662 29.2275H244.746Z" fill="var(--fill-0, white)"/>
<path id="Vector_9" d="M240.187 23.2685C237.327 23.2685 235.838 21.8384 235.838 18.9484V9.26533H232.56V6.88181H235.838V2.41269H238.519V6.88181H243.703V9.26533H238.519V18.9484C238.519 20.3487 239.234 20.885 240.485 20.885H243.852V23.2685H240.187Z" fill="var(--fill-0, white)"/>
<path id="Vector_10" d="M223.971 23.7146C219.144 23.7146 215.927 20.2883 215.927 15.0743C215.927 9.80079 219.204 6.43406 223.911 6.43406C228.321 6.43406 231.688 9.35388 231.688 14.2103V15.9682H218.757C218.966 19.037 220.843 21.3907 223.971 21.3907C226.235 21.3907 227.993 20.1691 228.649 18.2325H231.539C230.853 21.4503 227.874 23.7146 223.971 23.7146ZM218.817 13.674H228.887C228.887 10.7542 227.04 8.758 224.001 8.758C220.843 8.758 219.174 10.9032 218.817 13.674Z" fill="var(--fill-0, white)"/>
<path id="Vector_11" d="M209.062 5.21396C209.062 1.90682 210.82 0 214.306 0H216.511V2.38353H214.366C212.816 2.38353 211.744 3.06879 211.744 5.27355V6.88243H215.319V9.26596H211.744V23.2692H209.062V9.26596H206.977V6.88243H209.062V5.21396Z" fill="var(--fill-0, white)"/>
<path id="Vector_12" d="M201.943 19.8712C200.9 22.4931 198.755 23.7146 196.163 23.7146C193.035 23.7146 190.562 21.927 190.562 18.5305C190.562 14.836 193.541 13.4059 196.789 13.4059H199.381C201.019 13.4059 201.854 12.7206 201.854 11.4395C201.854 9.65182 200.215 8.758 198.159 8.758C195.746 8.758 194.048 9.97956 193.869 12.1843H191.187C191.426 8.69841 193.72 6.43406 198.159 6.43406C202.688 6.43406 204.535 8.78779 204.535 12.0056V19.8414C204.535 20.616 204.803 20.8842 205.578 20.8842H206.323V23.2677H204.565C202.986 23.2677 202.003 22.3143 202.003 20.8246V19.8712H201.943ZM193.362 18.5305C193.362 20.05 194.316 21.3907 196.669 21.3907C199.381 21.3907 201.854 19.603 201.854 15.7596V13.9124H201.794C201.228 15.1041 200.185 15.7 198.189 15.7H196.848C194.286 15.7 193.362 17.0408 193.362 18.5305Z" fill="var(--fill-0, white)"/>
<path id="Vector_13" d="M180.052 23.7172C174.659 23.7172 171.799 20.7378 171.59 16.0602H174.391C174.57 19.3673 176.566 21.2443 180.111 21.2443C183.419 21.2443 185.385 19.5759 185.385 17.0136C185.385 15.4345 184.64 13.8554 181.184 13.8554H178.473C174.004 13.8554 171.888 11.5017 171.888 8.3435C171.888 4.55965 174.957 1.96756 179.873 1.96756C185.147 1.96756 187.679 4.97677 187.888 9.20753H185.087C184.908 6.10894 183.21 4.44047 179.814 4.44047C176.655 4.44047 174.689 5.90038 174.689 8.28391C174.689 9.89279 175.583 11.1739 178.592 11.1739H181.303C186.696 11.1739 188.186 14.0938 188.186 16.954C188.186 21.0954 185.057 23.7172 180.052 23.7172Z" fill="var(--fill-0, white)"/>
<path id="Vector_14" d="M157.057 23.7146C152.945 23.7146 150.473 21.4205 150.294 17.8452H153.094C153.214 20.2883 154.793 21.3907 157.057 21.3907C159.351 21.3907 160.811 20.2585 160.811 18.4411C160.811 17.011 159.887 16.0873 157.653 16.0873H155.895C152.558 16.0873 150.592 14.2699 150.592 11.5586C150.592 8.63882 152.886 6.43406 156.848 6.43406C160.93 6.43406 163.135 8.758 163.314 12.1843H160.513C160.394 10.0094 159.172 8.758 156.848 8.758C154.733 8.758 153.392 9.80079 153.392 11.4395C153.392 12.8994 154.435 13.5846 156.104 13.5846H158.04C161.735 13.5846 163.612 15.7 163.612 18.3815C163.612 21.4801 161.109 23.7146 157.057 23.7146Z" fill="var(--fill-0, white)"/>
<path id="Vector_15" d="M115.793 23.2686V21.1831L125.357 9.26542V9.23563H116.389V6.8819H128.992V8.96748L119.458 20.8851V20.9149H129.647V23.2686H115.793Z" fill="var(--fill-0, white)"/>
<path id="Vector_16" d="M110.139 19.8729C109.096 22.4948 106.951 23.7163 104.359 23.7163C101.23 23.7163 98.7574 21.9287 98.7574 18.5321C98.7574 14.8377 101.737 13.4076 104.984 13.4076H107.576C109.215 13.4076 110.049 12.7223 110.049 11.4411C110.049 9.6535 108.411 8.75968 106.355 8.75968C103.942 8.75968 102.243 9.98123 102.065 12.186H99.383C99.6214 8.70009 101.916 6.43574 106.355 6.43574C110.884 6.43574 112.731 8.78947 112.731 12.0072V19.8431C112.731 20.6177 112.999 20.8859 113.774 20.8859H114.518V23.2694H112.761C111.181 23.2694 110.198 22.316 110.198 20.8263V19.8729H110.139ZM101.558 18.5321C101.558 20.0516 102.511 21.3924 104.865 21.3924C107.576 21.3924 110.049 19.6047 110.049 15.7613V13.9141H109.99C109.424 15.1058 108.381 15.7017 106.385 15.7017H105.044C102.482 15.7017 101.558 17.0424 101.558 18.5321Z" fill="var(--fill-0, white)"/>
<path id="Vector_17" d="M89.4425 23.2686V6.8819H92.0644V9.74213H92.124C92.8986 8.01407 93.7925 6.8819 96.4143 6.8819H97.9934V9.26542H96.0568C93.3158 9.26542 92.124 10.9041 92.124 14.0325V23.2686H89.4425Z" fill="var(--fill-0, white)"/>
<path id="Vector_18" d="M69.9497 23.2685V2.41269H78.3516C82.1355 2.41269 84.668 4.49828 84.668 7.59686C84.668 9.98039 83.1187 11.6191 80.4372 11.8872V11.9468C84.1019 12.066 86.1875 14.1814 86.1875 17.131C86.1875 20.6169 83.4166 23.2685 78.9475 23.2685H69.9497ZM72.7205 20.7956H78.6198C81.7779 20.7956 83.2974 19.3655 83.2974 17.131C83.2974 14.8964 81.7183 13.4961 78.6198 13.4961H72.7205V20.7956ZM72.7205 11.0232H78.0239C80.4968 11.0232 81.8077 9.80162 81.8077 7.95439C81.8077 6.13695 80.5564 4.8856 78.0239 4.8856H72.7205V11.0232Z" fill="var(--fill-0, white)"/>
</g>
<rect id="Icon" x="20.1835" y="21.6143" width="11.5866" height="11.5866" rx="5.79329" fill="var(--fill-0, #28C8B9)"/>
<path id="Union" d="M30.0293 1.75151C30.42 1.75151 30.7372 2.0679 30.7373 2.45854V10.5337H30.7383C30.7383 11.14 31.2297 11.6314 31.8359 11.6314H40.457C40.8477 11.6314 41.1649 11.9478 41.165 12.3384V21.3521C41.165 21.7429 40.8478 22.0601 40.457 22.0601H31.4434C31.0528 22.0599 30.7363 21.7427 30.7363 21.3521V12.729L30.7305 12.6167C30.6779 12.1002 30.2675 11.6898 29.751 11.6373L29.6387 11.6314H10.4287V42.9175H29.6377V42.9165C30.2439 42.9165 30.7354 42.4251 30.7354 41.8189H30.7363V33.1958C30.7363 32.8052 31.0528 32.488 31.4434 32.4878H40.457C40.8478 32.4878 41.165 32.8051 41.165 33.1958V42.2095C41.1648 42.6 40.8476 42.9165 40.457 42.9165H31.8145C31.2298 42.9265 30.7574 43.393 30.7373 43.9751V52.0894C30.7373 52.4802 30.4201 52.7974 30.0293 52.7974H0.708008C0.317251 52.7974 0 52.4802 0 52.0894V2.45854C0.000138307 2.0679 0.317337 1.75151 0.708008 1.75151H30.0293Z" fill="var(--fill-0, white)"/>
</g>
<path id="Ellipse 145 (Stroke)" fill-rule="evenodd" clip-rule="evenodd" d="M139.403 21.2318C142.803 21.2318 145.56 18.475 145.56 15.0743C145.56 11.6737 142.803 8.9169 139.403 8.9169C136.002 8.9169 133.245 11.6737 133.245 15.0743C133.245 18.475 136.002 21.2318 139.403 21.2318ZM139.403 23.7146C144.175 23.7146 148.043 19.8462 148.043 15.0743C148.043 10.3024 144.175 6.43406 139.403 6.43406C134.631 6.43406 130.762 10.3024 130.762 15.0743C130.762 19.8462 134.631 23.7146 139.403 23.7146Z" fill="var(--fill-0, white)"/>
<rect id="Icon_2" x="136.92" y="12.5103" width="4.96568" height="4.96568" rx="2.48284" fill="var(--fill-0, #28C8B9)"/>
</g>
</svg>
