<svg preserveAspectRatio="none" width="100%" height="100%" overflow="visible" style="display: block;" viewBox="0 0 390.222 166.262" fill="none" xmlns="http://www.w3.org/2000/svg">
<path id="Ellipse 101" d="M195.111 0.299805C248.959 0.299833 297.695 9.59964 332.958 24.624C350.59 32.1365 364.84 41.075 374.677 50.9844C384.512 60.8924 389.922 71.7551 389.922 83.1309C389.922 94.5068 384.513 105.37 374.677 115.278C364.84 125.188 350.59 134.125 332.958 141.638C297.695 156.662 248.959 165.962 195.111 165.962C141.264 165.962 92.5274 156.662 57.2646 141.638C39.6329 134.125 25.383 125.188 15.5459 115.278C5.71001 105.37 0.299805 94.5068 0.299805 83.1309C0.299843 71.755 5.7101 60.8924 15.5459 50.9844C25.383 41.075 39.6327 32.1365 57.2646 24.624C92.5274 9.59972 141.264 0.299805 195.111 0.299805Z" stroke="var(--stroke-0, #B1FA63)" stroke-width="0.6"/>
</svg>
