<svg preserveAspectRatio="none" width="100%" height="100%" overflow="visible" style="display: block;" viewBox="0 0 151.078 65.2901" fill="none" xmlns="http://www.w3.org/2000/svg">
<path id="Ellipse 97" d="M75.5391 0.299805C96.3675 0.299805 115.21 3.94918 128.834 9.83691C135.647 12.781 141.141 16.2795 144.928 20.1484C148.713 24.016 150.778 28.2388 150.778 32.6455C150.778 37.0521 148.713 41.2751 144.928 45.1426C141.141 49.0115 135.646 52.509 128.834 55.4531C115.21 61.3409 96.3675 64.9902 75.5391 64.9902C54.7106 64.9902 35.8682 61.3409 22.2441 55.4531C15.4316 52.509 9.93703 49.0115 6.15039 45.1426C2.36521 41.2751 0.29995 37.0521 0.299805 32.6455C0.299805 28.2389 2.36531 24.016 6.15039 20.1484C9.93703 16.2795 15.4316 12.781 22.2441 9.83691C35.8682 3.94916 54.7106 0.299811 75.5391 0.299805Z" stroke="var(--stroke-0, #B1FA63)" stroke-width="0.6"/>
</svg>
