<svg preserveAspectRatio="none" width="100%" height="100%" overflow="visible" style="display: block;" viewBox="0 0 76.6779 32.645" fill="none" xmlns="http://www.w3.org/2000/svg">
<path id="Ellipse 96" d="M38.3389 0.299805C48.8954 0.299805 58.4384 2.12218 65.3311 5.05664C68.7779 6.52413 71.5481 8.26414 73.4521 10.1807C75.3548 12.0959 76.3778 14.1709 76.3779 16.3223C76.3779 18.4738 75.3549 20.5496 73.4521 22.4648C71.5481 24.3813 68.7778 26.1205 65.3311 27.5879C58.4384 30.5224 48.8954 32.3447 38.3389 32.3447C27.7823 32.3447 18.2393 30.5224 11.3467 27.5879C7.89994 26.1204 5.12956 24.3813 3.22559 22.4648C1.3228 20.5496 0.299805 18.4738 0.299805 16.3223C0.299886 14.1709 1.32296 12.0958 3.22559 10.1807C5.1296 8.26414 7.89979 6.52413 11.3467 5.05664C18.2393 2.12216 27.7823 0.299814 38.3389 0.299805Z" stroke="var(--stroke-0, #B1FA63)" stroke-width="0.6"/>
</svg>
