<svg width="639" height="641" viewBox="0 0 639 641" fill="none" xmlns="http://www.w3.org/2000/svg">
<line x1="635.614" y1="229.274" x2="6.11663e-05" y2="229.274" stroke="#28C8B9" stroke-width="3" stroke-dasharray="2 2"/>
<g opacity="0.6">
<line x1="421.651" y1="170.17" x2="421.651" y2="641" stroke="#28C8B9" stroke-width="3"/>
<line x1="175.409" y1="170.17" x2="175.409" y2="641" stroke="#28C8B9" stroke-width="3"/>
<line x1="52.2874" y1="609.713" x2="52.2874" y2="641" stroke="#28C8B9" stroke-width="3"/>
<line x1="544.772" y1="286.161" x2="544.772" y2="641" stroke="#28C8B9" stroke-width="3"/>
<line x1="298.53" y1="-6.25731e-07" x2="298.53" y2="641" stroke="#28C8B9" stroke-width="3"/>
<line x1="483.212" y1="170.17" x2="483.212" y2="641" stroke="#28C8B9" stroke-width="3"/>
<line x1="236.969" y1="-6.25731e-07" x2="236.969" y2="641" stroke="#28C8B9" stroke-width="3"/>
<line x1="113.848" y1="289.213" x2="113.848" y2="641" stroke="#28C8B9" stroke-width="3"/>
<line x1="606.333" y1="445.647" x2="606.333" y2="641" stroke="#28C8B9" stroke-width="3"/>
<line x1="360.091" y1="93.8608" x2="360.091" y2="641" stroke="#28C8B9" stroke-width="3"/>
<line x1="452.431" y1="170.17" x2="452.431" y2="641" stroke="#28C8B9" stroke-width="3"/>
<line x1="206.189" y1="170.17" x2="206.189" y2="641" stroke="#28C8B9" stroke-width="3"/>
<line x1="83.0677" y1="371.627" x2="83.0677" y2="641" stroke="#28C8B9" stroke-width="3"/>
<line x1="575.553" y1="286.161" x2="575.553" y2="641" stroke="#28C8B9" stroke-width="3"/>
<line x1="329.31" y1="93.8608" x2="329.31" y2="641" stroke="#28C8B9" stroke-width="3"/>
<line x1="513.992" y1="286.161" x2="513.992" y2="641" stroke="#28C8B9" stroke-width="3"/>
<line x1="267.75" y1="-6.25731e-07" x2="267.75" y2="641" stroke="#28C8B9" stroke-width="3"/>
<line x1="144.628" y1="289.213" x2="144.628" y2="641" stroke="#28C8B9" stroke-width="3"/>
<line x1="390.871" y1="93.8608" x2="390.871" y2="641" stroke="#28C8B9" stroke-width="3"/>
<line x1="437.041" y1="170.17" x2="437.041" y2="641" stroke="#28C8B9" stroke-width="3"/>
<line x1="190.799" y1="170.17" x2="190.799" y2="641" stroke="#28C8B9" stroke-width="3"/>
<line x1="67.6775" y1="609.713" x2="67.6775" y2="641" stroke="#28C8B9" stroke-width="3"/>
<line x1="560.163" y1="286.161" x2="560.163" y2="641" stroke="#28C8B9" stroke-width="3"/>
<line x1="313.92" y1="93.8608" x2="313.92" y2="641" stroke="#28C8B9" stroke-width="3"/>
<line x1="498.602" y1="170.17" x2="498.602" y2="641" stroke="#28C8B9" stroke-width="3"/>
<line x1="252.359" y1="-6.25731e-07" x2="252.359" y2="641" stroke="#28C8B9" stroke-width="3"/>
<line x1="129.238" y1="289.213" x2="129.238" y2="641" stroke="#28C8B9" stroke-width="3"/>
<line x1="621.723" y1="445.647" x2="621.723" y2="641" stroke="#28C8B9" stroke-width="3"/>
<line x1="375.481" y1="93.8608" x2="375.481" y2="641" stroke="#28C8B9" stroke-width="3"/>
<line x1="467.822" y1="170.17" x2="467.822" y2="641" stroke="#28C8B9" stroke-width="3"/>
<line x1="221.579" y1="-6.25731e-07" x2="221.579" y2="641" stroke="#28C8B9" stroke-width="3"/>
<line x1="98.4579" y1="371.627" x2="98.4579" y2="641" stroke="#28C8B9" stroke-width="3"/>
<line x1="590.943" y1="445.647" x2="590.943" y2="641" stroke="#28C8B9" stroke-width="3"/>
<line x1="344.7" y1="93.8608" x2="344.7" y2="641" stroke="#28C8B9" stroke-width="3"/>
<line x1="529.382" y1="286.161" x2="529.382" y2="641" stroke="#28C8B9" stroke-width="3"/>
<line x1="283.14" y1="-6.25731e-07" x2="283.14" y2="641" stroke="#28C8B9" stroke-width="3"/>
<line x1="160.018" y1="289.213" x2="160.018" y2="641" stroke="#28C8B9" stroke-width="3"/>
<line x1="406.261" y1="170.17" x2="406.261" y2="641" stroke="#28C8B9" stroke-width="3"/>
<line x1="637.113" y1="608.95" x2="637.113" y2="641" stroke="#28C8B9" stroke-width="3"/>
</g>
</svg>
