<svg preserveAspectRatio="none" width="100%" height="100%" overflow="visible" style="display: block;" viewBox="0 0 176.473 30" fill="none" xmlns="http://www.w3.org/2000/svg">
<g id="logo-blue">
<ellipse id="Ellipse" cx="95.8054" cy="4.0925" rx="3.89117" ry="3.72629" fill="url(#paint0_radial_274_25499)"/>
<g id="Subvisual">
<path d="M17.8784 9.77027H18.2838L17.8784 2.63513C15.6487 1.41892 12.4865 0.81081 10.0135 0.81081C4.45946 0.81081 0 3.64865 0 9C0 17.8378 13.9054 17.3919 13.9054 24.7297C13.9054 28.2162 11.473 29.5946 9.16216 29.5946C4.66216 29.5946 1.78378 25.7027 0.445946 20.4324H0.0405405L0.445946 27.973C2.67568 29.1892 6.2027 30 9.12162 30C14.5541 30 19.5405 27.2432 19.5405 21C19.5405 11.7973 5.63514 11.9189 5.63514 4.98649C5.63514 2.31081 7.7027 1.21621 10.0541 1.21621C13.8649 1.21621 16.5405 5.39189 17.8784 9.77027Z" fill="var(--fill-0, #045CFC)"/>
<path d="M35.7302 12.1622V25.3378C34.9193 26.027 33.7437 26.9595 31.8788 26.9595C30.4193 26.9595 29.6896 25.9865 29.6896 24.4054V8.91892H28.9599L20.5275 9.89189V10.2973C22.6761 10.5 22.9193 10.6622 22.9193 12.1622V23.9189C22.9193 28.3784 25.4734 30 28.4734 30C31.4329 30 33.8653 28.1757 35.7302 25.7432H35.9329L36.095 30H36.5004L44.8923 29.027V28.6216C42.7437 28.4189 42.5004 28.2568 42.5004 26.7568V8.91892H41.7707L32.5275 9.89189V10.2973C35.4869 10.5 35.7302 10.6622 35.7302 12.1622Z" fill="var(--fill-0, #045CFC)"/>
<path d="M54.0272 11.9189H53.8245L54.0272 0H53.6218L44.8651 0.972973V1.37838C47.0137 1.58108 47.257 1.74324 47.257 3.24324V29.7973H47.6624L50.9462 27.5676C53.0137 29.473 55.5272 30 57.5948 30C63.2705 30 67.7299 25.9865 67.7299 19.4595C67.7299 13.3784 64.6894 8.91892 59.5813 8.91892C57.1489 8.91892 55.3245 10.0946 54.0272 11.9189ZM56.4597 11.3514C58.7705 11.3514 60.5948 13.8649 60.5948 19.7838C60.5948 24.9324 59.6218 29.4324 57.0272 29.4324C55.9326 29.4324 54.0272 28.9865 54.0272 24.6486V12.3243C54.7975 11.6757 55.6083 11.3514 56.4597 11.3514Z" fill="var(--fill-0, #045CFC)"/>
<path d="M69.387 12.3649L76.887 29.7973H80.4141L86.7789 12.6081C87.387 11.027 87.833 10.0946 89.7789 9.72973V9.32432H81.833V9.72973C86.2114 9.97297 86.7789 11.1486 86.2114 12.7297L81.833 24.527H81.7519L77.0897 12.7297C76.5222 11.3108 76.6843 9.97297 79.0357 9.72973V9.32432H66.9951V9.72973C68.2519 9.89189 68.8195 11.027 69.387 12.3649Z" fill="var(--fill-0, #045CFC)"/>
<path d="M99.3744 27.6486V8.91892H98.969L90.2122 9.89189V10.2973C92.3609 10.5 92.6041 10.6622 92.6041 12.1622V27.6486C92.6041 28.8243 92.3609 28.9865 90.2122 29.1892V29.5946H101.766V29.1892C99.6176 28.9865 99.3744 28.8243 99.3744 27.6486Z" fill="var(--fill-0, #045CFC)"/>
<path d="M116.834 15.4054H117.239L116.834 10.1757C115.212 9.4054 112.618 8.91892 110.712 8.91892C105.28 8.91892 102.888 11.5946 102.888 14.8378C102.888 22.2162 113.55 21.973 113.55 26.7568C113.55 28.5405 112.253 29.5946 110.185 29.5946C107.104 29.5946 104.428 27.4865 103.09 23.1081H102.685L103.131 28.5811C104.753 29.3919 107.874 30 109.982 30C115.172 30 118.374 27.4865 118.374 23.6351C118.374 16.7027 107.996 16.9459 107.996 11.7973C107.996 10.2162 108.928 9.32432 110.631 9.32432C113.266 9.32432 115.739 12.527 116.834 15.4054Z" fill="var(--fill-0, #045CFC)"/>
<path d="M134.191 12.1622V25.3378C133.381 26.027 132.205 26.9595 130.34 26.9595C128.881 26.9595 128.151 25.9865 128.151 24.4054V8.91892H127.421L118.989 9.89189V10.2973C121.137 10.5 121.381 10.6622 121.381 12.1622V23.9189C121.381 28.3784 123.935 30 126.935 30C129.894 30 132.327 28.1757 134.191 25.7432H134.394L134.556 30H134.962L143.354 29.027V28.6216C141.205 28.4189 140.962 28.2568 140.962 26.7568V8.91892H140.232L130.989 9.89189V10.2973C133.948 10.5 134.191 10.6622 134.191 12.1622Z" fill="var(--fill-0, #045CFC)"/>
<path d="M161.813 27.0405V15.1216C161.894 11.6757 159.056 8.91892 154.029 8.91892C148.191 8.91892 144.907 13.2568 144.907 15.5676C144.907 17.1081 146.164 17.6757 147.502 17.6757C149.002 17.6757 150.056 16.9054 150.056 15.973C150.056 14.7973 147.664 14.3919 147.664 12.7703C147.664 11.1892 149.367 10.2162 151.07 10.2162C153.948 10.2162 155.043 12.4054 155.043 14.6757V18.7703C146.245 19.2973 144.299 22.7027 144.299 25.2162C144.299 27.8919 146.043 30 149.124 30C151.556 30 153.583 28.7838 154.961 26.7568H155.043V27.2432C155.043 28.7432 156.097 30 158.407 30C160.718 30 162.786 28.9459 164.448 27.6081L164.407 27.2838C163.88 27.6081 163.232 27.973 162.745 27.973C162.137 27.973 161.813 27.6081 161.813 27.0405ZM155.043 19.1757V26.3514C154.516 26.6757 154.029 27 153.299 27C152.002 27 151.191 26.0676 151.191 23.6757C151.191 20.6351 152.57 19.5 155.043 19.1757Z" fill="var(--fill-0, #045CFC)"/>
<path d="M174.081 27.6486V0H173.676L164.919 0.972973V1.37838C167.068 1.58108 167.311 1.74324 167.311 3.24324V27.6486C167.311 28.8243 167.068 28.9865 164.919 29.1892V29.5946H176.473V29.1892C174.325 28.9865 174.081 28.8243 174.081 27.6486Z" fill="var(--fill-0, #045CFC)"/>
</g>
</g>
<defs>
<radialGradient id="paint0_radial_274_25499" cx="0" cy="0" r="1" gradientTransform="matrix(-3.88426 4.81546 -5.02853 -4.1732 98.4015 1.51493)" gradientUnits="userSpaceOnUse">
<stop stop-color="#045CFC" stop-opacity="0.6"/>
<stop offset="1" stop-color="#045CFC"/>
</radialGradient>
</defs>
</svg>
