<svg width="33" height="32" viewBox="0 0 33 32" fill="none" xmlns="http://www.w3.org/2000/svg">
<ellipse cx="28.3603" cy="4.02424" rx="4.173" ry="4.02424" fill="white"/>
<path d="M19.1733 10.1529L19.6081 10.1529L19.1733 2.44725C16.7821 1.13378 13.3909 0.477051 10.7388 0.477051C4.78245 0.477051 0 3.5418 -2.57373e-10 9.32103C-5.35133e-10 18.8655 14.9126 18.3839 14.9126 26.3085C14.9126 30.0737 12.3039 31.5623 9.82577 31.5623C4.99984 31.5623 1.91298 27.3593 0.478245 21.6676L0.0434768 21.6676L0.478245 29.8111C2.86947 31.1245 6.65196 32.0002 9.78229 32.0002C15.6082 32.0002 20.9558 29.023 20.9558 22.2805C20.9558 12.342 6.04328 12.4733 6.04328 4.98661C6.04328 2.09699 8.2606 0.914871 10.7823 0.914871C14.8691 0.914871 17.7386 5.42443 19.1733 10.1529Z" fill="white"/>
</svg>
